<svg width="83" height="81" viewBox="0 0 83 81" fill="none" xmlns="http://www.w3.org/2000/svg">
<path d="M17.9844 78.0547C17.8796 78.0182 17.654 78 17.3076 78H14.457C14.2201 78 14.0309 77.9635 13.8896 77.8906C13.7484 77.8132 13.6777 77.6742 13.6777 77.4736C13.6777 77.3278 13.7119 77.2116 13.7803 77.125C13.9626 77.1706 14.1312 77.1934 14.2861 77.1934C14.4411 77.1934 14.5641 77.1774 14.6553 77.1455C14.7464 77.109 14.8262 77.0475 14.8945 76.9609C15.0312 76.7786 15.0996 76.4756 15.0996 76.0518V69.0586C15.0859 68.7396 14.9811 68.5368 14.7852 68.4502C14.7259 68.4229 14.6439 68.3978 14.5391 68.375L14.2109 68.3066C13.9876 68.252 13.8509 68.1859 13.8008 68.1084C13.7507 68.0264 13.7256 67.9443 13.7256 67.8623C13.7256 67.6937 13.7598 67.5615 13.8281 67.4658C13.9329 67.5023 14.1585 67.5205 14.5049 67.5205H17.2871C17.5241 67.5205 17.7132 67.5592 17.8545 67.6367C18.0003 67.7096 18.0732 67.8464 18.0732 68.0469C18.0732 68.1973 18.0368 68.3135 17.9639 68.3955C17.7907 68.3499 17.6016 68.3271 17.3965 68.3271C16.9544 68.3271 16.7266 68.6872 16.7129 69.4072V72.4287H22.1816V69.0586C22.168 68.7396 22.0632 68.5368 21.8672 68.4502C21.8079 68.4229 21.7259 68.3978 21.6211 68.375L21.293 68.3066C21.0697 68.252 20.9329 68.1859 20.8828 68.1084C20.8327 68.0264 20.8076 67.9443 20.8076 67.8623C20.8076 67.68 20.8418 67.5479 20.9102 67.4658C21.015 67.5023 21.2406 67.5205 21.5869 67.5205H24.3691C24.6061 67.5205 24.7952 67.5592 24.9365 67.6367C25.0824 67.7096 25.1553 67.8464 25.1553 68.0469C25.1553 68.1973 25.1188 68.3135 25.0459 68.3955C24.8727 68.3499 24.6836 68.3271 24.4785 68.3271C24.0365 68.3271 23.8086 68.6872 23.7949 69.4072V76.3867C23.7949 76.6419 23.8337 76.8105 23.9111 76.8926C24.0251 77.0156 24.1663 77.0954 24.335 77.1318C24.5036 77.1637 24.6426 77.1934 24.752 77.2207C24.8613 77.2435 24.9525 77.2731 25.0254 77.3096C25.1712 77.3825 25.2441 77.5055 25.2441 77.6787C25.2441 77.8382 25.2077 77.9635 25.1348 78.0547C25.0299 78.0182 24.8044 78 24.458 78H21.6074C21.3704 78 21.1813 77.9635 21.04 77.8906C20.8988 77.8132 20.8281 77.6742 20.8281 77.4736C20.8281 77.3278 20.8623 77.2116 20.9307 77.125C21.1038 77.1706 21.2656 77.1934 21.416 77.1934C21.5664 77.1934 21.6826 77.1774 21.7646 77.1455C21.8467 77.1136 21.9173 77.0566 21.9766 76.9746C22.1042 76.806 22.1725 76.5212 22.1816 76.1201V73.3721H16.7129V76.3867C16.7129 76.7467 16.8132 76.9746 17.0137 77.0703C17.0775 77.0977 17.1641 77.1227 17.2734 77.1455C17.3828 77.1683 17.4899 77.1934 17.5947 77.2207C17.7041 77.2435 17.7952 77.2731 17.8682 77.3096C18.0186 77.387 18.0938 77.5101 18.0938 77.6787C18.0938 77.8382 18.0573 77.9635 17.9844 78.0547ZM33.1602 77.1934C33.3516 77.2253 33.4951 77.2412 33.5908 77.2412C33.6865 77.2412 33.7799 77.2321 33.8711 77.2139C33.9668 77.1911 34.0511 77.1569 34.124 77.1113C34.2881 77.0111 34.3701 76.8538 34.3701 76.6396C34.3701 76.4619 34.3154 76.2637 34.2061 76.0449L33.5635 74.4521H29.2363L28.4707 76.3936C28.3978 76.5713 28.3613 76.7012 28.3613 76.7832C28.3613 76.8607 28.3727 76.9199 28.3955 76.9609C28.4229 76.9974 28.4616 77.0293 28.5117 77.0566C28.5664 77.084 28.6325 77.1068 28.71 77.125L28.9902 77.2002C29.291 77.2503 29.4847 77.2959 29.5713 77.3369C29.749 77.4235 29.8379 77.5511 29.8379 77.7197C29.8379 77.8428 29.8037 77.9476 29.7354 78.0342C29.6488 78.0114 29.569 78 29.4961 78H26.7139C26.1077 78 25.8047 77.8337 25.8047 77.501C25.8047 77.346 25.8389 77.2207 25.9072 77.125C26.0758 77.1706 26.2171 77.1934 26.3311 77.1934C26.4495 77.1934 26.5475 77.1751 26.625 77.1387C26.707 77.1022 26.7845 77.0407 26.8574 76.9541C26.9805 76.8037 27.124 76.5029 27.2881 76.0518L30.665 67.876C30.7607 67.6572 31.0319 67.5068 31.4785 67.4248C31.6016 67.402 31.7314 67.3906 31.8682 67.3906C32.1462 67.3906 32.3171 67.4658 32.3809 67.6162L33.0645 69.3252C34.3815 72.4333 35.1426 74.2471 35.3477 74.7666L35.9629 76.3799C36.0859 76.7308 36.1885 76.9473 36.2705 77.0293C36.3525 77.1113 36.4414 77.1683 36.5371 77.2002C36.6328 77.2321 36.7308 77.2594 36.8311 77.2822C36.9359 77.3005 37.027 77.3255 37.1045 77.3574C37.2777 77.4349 37.3643 77.5534 37.3643 77.7129C37.3643 77.8359 37.3301 77.9408 37.2617 78.0273C37.1751 78.0046 37.0977 77.9932 37.0293 77.9932H33.7686C33.5361 77.9932 33.3538 77.9658 33.2217 77.9111C33.0941 77.8519 33.0303 77.763 33.0303 77.6445C33.0303 77.4395 33.0736 77.2891 33.1602 77.1934ZM33.167 73.4814L31.376 69.0518L29.6191 73.4814H33.167ZM47.8096 68.3955C47.7139 68.3499 47.5817 68.3271 47.4131 68.3271C47.2445 68.3271 47.1169 68.3636 47.0303 68.4365C46.9482 68.5049 46.8708 68.6029 46.7979 68.7305C46.7249 68.8581 46.6543 69.0107 46.5859 69.1885L43.7627 76.8516C43.4574 77.7038 42.9492 78.1299 42.2383 78.1299C42.015 78.1299 41.8783 78.0661 41.8281 77.9385L38.458 69.3594C38.4215 69.2682 38.3874 69.1702 38.3555 69.0654C38.3236 68.9561 38.2871 68.8512 38.2461 68.751C38.1458 68.5186 38.0068 68.375 37.8291 68.3203C37.7243 68.2839 37.6309 68.2542 37.5488 68.2314C37.4714 68.2041 37.4076 68.1745 37.3574 68.1426C37.2526 68.0742 37.2002 67.9876 37.2002 67.8828C37.2002 67.7188 37.2367 67.5798 37.3096 67.4658C37.4144 67.5023 37.5944 67.5205 37.8496 67.5205H40.6797C40.985 67.5205 41.1924 67.541 41.3018 67.582C41.5114 67.6641 41.6162 67.819 41.6162 68.0469C41.6162 68.2018 41.582 68.318 41.5137 68.3955C41.4134 68.3499 41.2152 68.3271 40.9189 68.3271C40.3812 68.3271 40.1123 68.5505 40.1123 68.9971C40.1123 69.0518 40.1283 69.1315 40.1602 69.2363L40.2422 69.4756C40.265 69.5348 40.2855 69.5872 40.3037 69.6328L42.7578 76.3867L45.2939 69.1338C45.3213 69.0335 45.335 68.9447 45.335 68.8672C45.335 68.7852 45.3167 68.7168 45.2803 68.6621C45.2438 68.6029 45.196 68.5527 45.1367 68.5117C45.0729 68.4661 44.959 68.4274 44.7949 68.3955C44.6309 68.359 44.4941 68.3271 44.3848 68.2998C44.2799 68.2725 44.1911 68.2383 44.1182 68.1973C43.9723 68.1152 43.8949 67.9785 43.8857 67.7871C43.8857 67.6595 43.9085 67.5524 43.9541 67.4658C44.0589 67.5023 44.2845 67.5205 44.6309 67.5205H47.0029C47.6136 67.5205 47.9189 67.696 47.9189 68.0469C47.9189 68.1973 47.8825 68.3135 47.8096 68.3955ZM56.1357 74.958C56.2588 74.8532 56.3887 74.8008 56.5254 74.8008C56.735 74.8008 56.8558 74.8304 56.8877 74.8896C57.0654 75.2451 57.1543 75.833 57.1543 76.6533C57.1543 77.223 57.0905 77.6354 56.9629 77.8906C56.9219 77.9635 56.8786 78 56.833 78H49.2861C48.7438 78 48.4727 77.8382 48.4727 77.5146C48.4727 77.3415 48.5091 77.2093 48.582 77.1182C48.737 77.1637 48.8874 77.1865 49.0332 77.1865C49.179 77.1865 49.3044 77.1751 49.4092 77.1523C49.514 77.1296 49.612 77.0817 49.7031 77.0088C49.9219 76.8402 50.0312 76.5553 50.0312 76.1543V69.2295C50.0312 68.833 49.8717 68.5801 49.5527 68.4707C49.4616 68.4388 49.3659 68.4115 49.2656 68.3887C49.1699 68.3613 49.0765 68.3363 48.9854 68.3135C48.8988 68.2861 48.8213 68.2565 48.7529 68.2246C48.598 68.1426 48.5205 68.0309 48.5205 67.8896C48.5205 67.7028 48.557 67.5684 48.6299 67.4863C48.7119 67.5091 48.7939 67.5205 48.876 67.5205H55.8691C56.2884 67.5205 56.5505 67.5592 56.6553 67.6367C56.8467 67.7734 56.9424 68.0742 56.9424 68.5391C56.9424 68.9857 56.9036 69.3503 56.8262 69.6328C56.7533 69.9154 56.7008 70.084 56.6689 70.1387C56.6234 70.2207 56.5345 70.2617 56.4023 70.2617C56.2109 70.2617 56.0788 70.2389 56.0059 70.1934C55.9375 70.1432 55.901 70.1068 55.8965 70.084C55.8372 69.4323 55.7347 69.0176 55.5889 68.8398C55.443 68.6576 55.2699 68.5345 55.0693 68.4707C54.8734 68.4023 54.6159 68.3682 54.2969 68.3682H52.7725C52.2894 68.3682 51.9932 68.416 51.8838 68.5117C51.779 68.6074 51.7129 68.7191 51.6855 68.8467C51.6582 68.9697 51.6445 69.1292 51.6445 69.3252V72.2373L52.0479 72.2441C53.055 72.2441 53.9893 72.1553 54.8506 71.9775C54.9144 72.0094 54.9714 72.1006 55.0215 72.251C55.0716 72.3968 55.0967 72.5426 55.0967 72.6885C55.0967 72.9346 55.0557 73.1488 54.9736 73.3311C54.6729 73.3584 54.3265 73.3721 53.9346 73.3721C53.5426 73.3721 52.7793 73.3083 51.6445 73.1807V76.2637C51.6445 76.6055 51.7357 76.8356 51.918 76.9541C52.0729 77.0544 52.3509 77.1045 52.752 77.1045L53.7842 77.0771C54.7822 77.0407 55.4316 76.9017 55.7324 76.6602C55.901 76.5234 56.0127 76.3434 56.0674 76.1201C56.1221 75.8968 56.1494 75.6735 56.1494 75.4502C56.1494 75.2223 56.1449 75.0583 56.1357 74.958ZM59.2119 78C58.6012 78 58.2959 77.8245 58.2959 77.4736C58.2959 77.3141 58.3324 77.2025 58.4053 77.1387C58.5374 77.1751 58.6742 77.1934 58.8154 77.1934C58.9613 77.1934 59.0866 77.1751 59.1914 77.1387C59.3008 77.1022 59.3965 77.0498 59.4785 76.9814C59.6426 76.8402 59.7246 76.6419 59.7246 76.3867V68.9424C59.7155 68.7601 59.6768 68.6234 59.6084 68.5322C59.54 68.4411 59.4375 68.3773 59.3008 68.3408C59.1641 68.2998 59.0501 68.2702 58.959 68.252C58.8724 68.2337 58.7926 68.2109 58.7197 68.1836C58.5602 68.1152 58.4805 68.0309 58.4805 67.9307C58.4805 67.721 58.5146 67.5729 58.583 67.4863C58.6787 67.5091 58.8245 67.5205 59.0205 67.5205H60.3535C60.7546 67.5205 61.1146 67.7233 61.4336 68.1289L67.1826 75.416V69.0381C67.1781 68.8558 67.1393 68.7031 67.0664 68.5801C66.998 68.457 66.8796 68.375 66.7109 68.334C66.5469 68.293 66.401 68.2633 66.2734 68.2451C66.1458 68.2223 66.0319 68.1927 65.9316 68.1562C65.7174 68.0833 65.6104 67.9648 65.6104 67.8008C65.6104 67.6641 65.6468 67.5592 65.7197 67.4863C65.8154 67.5091 65.9613 67.5205 66.1572 67.5205H68.9121C69.5228 67.5205 69.8281 67.6504 69.8281 67.9102C69.8281 68.1289 69.7939 68.277 69.7256 68.3545C69.6117 68.3226 69.4795 68.3066 69.3291 68.3066C69.1833 68.3066 69.0557 68.3112 68.9463 68.3203C68.8369 68.3249 68.7389 68.3522 68.6523 68.4023C68.4609 68.5072 68.3607 68.7214 68.3516 69.0449V77.8086C68.3516 77.9408 68.3151 78.0205 68.2422 78.0479C68.1693 78.0798 68.0371 78.0957 67.8457 78.0957C67.5221 78.0957 67.1758 77.8564 66.8066 77.3779L60.8936 69.9404V76.4824C60.9163 76.8743 61.1009 77.1159 61.4473 77.207C61.5794 77.2344 61.7093 77.2572 61.8369 77.2754C61.9691 77.2936 62.0853 77.3164 62.1855 77.3438C62.418 77.403 62.5342 77.5078 62.5342 77.6582C62.5342 77.8223 62.5 77.9476 62.4316 78.0342C62.3359 78.0114 62.1901 78 61.9941 78H59.2119Z" fill="#1598E2"/>
<path d="M5.125 25.808C2.28917 25.808 0 27.5942 0 29.8071V34.1529C0 35.2135 0.539954 36.2307 1.50108 36.9807C2.4622 37.7307 3.76577 38.152 5.125 38.152C6.48423 38.152 7.7878 37.7307 8.74892 36.9807C9.71005 36.2307 10.25 35.2135 10.25 34.1529V29.8071C10.25 27.5942 7.96083 25.808 5.125 25.808ZM76.875 25.808C74.0392 25.808 71.75 27.5942 71.75 29.8071V34.1529C71.75 35.2135 72.29 36.2307 73.2511 36.9807C74.2122 37.7307 75.5158 38.152 76.875 38.152C78.2342 38.152 79.5378 37.7307 80.4989 36.9807C81.46 36.2307 82 35.2135 82 34.1529V29.8071C82 27.5942 79.7108 25.808 76.875 25.808ZM22.8233 38.8986C19.9875 38.8986 17.6983 40.6848 17.6983 42.8977V47.2435C17.6983 48.3041 18.2383 49.3213 19.1994 50.0713C20.1605 50.8213 21.4641 51.2426 22.8233 51.2426C24.1826 51.2426 25.4861 50.8213 26.4473 50.0713C27.4084 49.3213 27.9483 48.3041 27.9483 47.2435V42.9244C27.9483 40.7115 25.6592 38.9252 22.8233 38.9252V38.8986ZM22.8233 12.7173C19.9875 12.7173 17.6983 14.5036 17.6983 16.7165V31.0069C17.6983 32.0675 18.2383 33.0847 19.1994 33.8347C20.1605 34.5847 21.4641 35.006 22.8233 35.006C24.1826 35.006 25.4861 34.5847 26.4473 33.8347C27.4084 33.0847 27.9483 32.0675 27.9483 31.0069V16.6899C27.9483 14.477 25.6592 12.6907 22.8233 12.6907V12.7173ZM59.1767 12.7173C56.3408 12.7173 54.0517 14.5036 54.0517 16.7165V21.0889C54.0517 22.1496 54.5916 23.1668 55.5527 23.9168C56.5139 24.6668 57.8174 25.0881 59.1767 25.0881C60.5359 25.0881 61.8395 24.6668 62.8006 23.9168C63.7617 23.1668 64.3017 22.1496 64.3017 21.0889V16.7165C64.3017 14.5036 62.0125 12.7173 59.1767 12.7173ZM41 0C38.1642 0 35.875 1.78629 35.875 3.99917V8.34493C35.875 9.40557 36.415 10.4228 37.3761 11.1728C38.3372 11.9228 39.6408 12.3441 41 12.3441C42.3592 12.3441 43.6628 11.9228 44.6239 11.1728C45.585 10.4228 46.125 9.40557 46.125 8.34493V3.99917C46.125 1.78629 43.8358 0 41 0ZM41 51.6159C38.1642 51.6159 35.875 53.4022 35.875 55.6151V59.9875C35.8728 60.5127 36.0031 61.033 36.2586 61.5189C36.5141 62.0048 36.8897 62.4466 37.364 62.8192C37.8383 63.1918 38.402 63.4879 39.023 63.6905C39.6439 63.8931 40.3099 63.9982 40.9829 64C41.6559 64.0017 42.3228 63.9 42.9455 63.7007C43.5681 63.5013 44.1344 63.2082 44.6118 62.8381C45.0893 62.468 45.4687 62.0281 45.7283 61.5435C45.988 61.059 46.1228 60.5393 46.125 60.0142V55.6417C46.125 53.4555 43.8358 51.6426 41 51.6426V51.6159ZM59.1767 29.0606C56.3408 29.0606 54.0517 30.8736 54.0517 33.0598V47.2701C54.0517 48.3308 54.5916 49.348 55.5527 50.098C56.5139 50.848 57.8174 51.2693 59.1767 51.2693C60.5359 51.2693 61.8395 50.848 62.8006 50.098C63.7617 49.348 64.3017 48.3308 64.3017 47.2701V33.0598C64.3017 30.8469 62.0125 29.0606 59.1767 29.0606ZM41 16.3433C38.1642 16.3433 35.875 18.1562 35.875 20.3424V43.6176C35.875 44.6782 36.415 45.6954 37.3761 46.4454C38.3372 47.1954 39.6408 47.6167 41 47.6167C42.3592 47.6167 43.6628 47.1954 44.6239 46.4454C45.585 45.6954 46.125 44.6782 46.125 43.6176V20.3691C46.125 18.1562 43.8358 16.3699 41 16.3699V16.3433Z" fill="#1598E2"/>
</svg>
